<svg width="268" height="307" viewBox="0 0 268 307" fill="none" xmlns="http://www.w3.org/2000/svg">
<rect x="17" y="75" width="237" height="160" fill="white"/>
<rect x="5" y="78.5422" width="149.068" height="100.636" transform="rotate(-29.5609 5 78.5422)" fill="white"/>
<rect x="132.544" y="5.55807" width="149.068" height="100.636" transform="rotate(28.7726 132.544 5.55807)" fill="white"/>
<rect x="263.424" y="226.115" width="149.068" height="100.636" transform="rotate(149.956 263.424 226.115)" fill="white"/>
<rect x="137.131" y="299.697" width="149.068" height="100.636" transform="rotate(-151.448 137.131 299.697)" fill="white"/>
<path d="M133.853 18.9026L249.952 85.1659V220.178L133.853 286.441L19.4122 220.178V84.3376L133.853 18.9026ZM3.65588 76.0547V229.289L132.194 303.835H135.512L264.879 229.289V76.883L137.17 3.16501H131.365L3.65588 76.0547Z" fill="black" stroke="black" stroke-width="6"/>
<path d="M133.853 42.923L36.8271 96.762V139.833L204.342 179.591V192.844L133.853 233.43L63.3641 194.5V176.278L36.8271 166.339V206.925L133.853 262.42L230.879 207.753V163.854L64.1934 124.096V111.671L133.853 71.085L206 110.843V128.237L231.708 139.005V97.5903L133.853 42.923Z" fill="#ED1E26" stroke="#221F20" stroke-width="6"/>
</svg>
